<svg width="120" height="120" viewBox="0 0 120 120" fill="none" xmlns="http://www.w3.org/2000/svg">
<g clip-path="url(#clip0_501_5)">
<rect width="120" height="120" fill="white"/>
<path d="M12 18.0989C12 12.2726 16.7232 7.54945 22.5495 7.54945H30.5762H39.8643H49.1524L62.2246 20.2769L75.2967 33.0043L75.2967 40L75.2967 89.8352C75.2967 95.6615 70.5736 100.385 64.7473 100.385H22.5494C16.7231 100.385 12 95.6615 12 89.8352V18.0989Z" fill="#23A566"/>
<path d="M43.1648 88.5165V72.1648H71.1209V88.5165H43.1648ZM77.4505 88.5165V72.1648H105.407V88.5165H77.4505ZM77.4505 94.8462H105.407V111.198H77.4505V94.8462ZM71.1209 94.8462V111.198H43.1648V94.8462H71.1209Z" stroke="#E57200" stroke-width="6.32967"/>
<path d="M77.4505 88.5165V72.1648H105.407V88.5165H77.4505ZM71.1209 94.8462V111.198H43.1648V94.8462H71.1209Z" stroke="#232D4B" stroke-width="6.32967"/>
<path d="M45.3042 33.9459C43.281 33.9459 41.6493 33.3259 40.4093 32.0859C39.1692 30.7805 38.5492 29.1163 38.5492 27.093C38.5492 25.0698 39.1692 23.4381 40.4093 22.1981C41.6493 20.958 43.281 20.338 45.3042 20.338C47.2622 20.338 48.8938 20.958 50.1992 22.1981C51.5045 23.4381 52.1571 25.0698 52.1571 27.093C52.1571 29.1163 51.5045 30.7805 50.1992 32.0859C48.8938 33.3259 47.2622 33.9459 45.3042 33.9459ZM32.1858 45.1064V42.3653H50.9823V83.7765C50.9823 85.9955 51.0802 87.3335 51.276 87.7903C51.4718 88.1819 52.0919 88.443 53.1361 88.5735L58.5206 89.2588V92H32.1858V89.2588L37.5702 88.5735C38.6145 88.443 39.2345 88.1819 39.4303 87.7903C39.6261 87.3335 39.724 85.9955 39.724 83.7765V50.5888C39.724 48.3697 39.6261 47.0644 39.4303 46.6728C39.2345 46.2159 38.6145 45.9222 37.5702 45.7917L32.1858 45.1064Z" fill="white"/>
</g>
<defs>
<clipPath id="clip0_501_5">
<rect width="120" height="120" fill="white"/>
</clipPath>
</defs>
</svg>
