<svg width="280" height="140" viewBox="0 0 280 140" fill="none" xmlns="http://www.w3.org/2000/svg">
<rect width="280" height="140" fill="#232D4B"/>
<g filter="url(#filter0_d_507_5)">
<path d="M215.025 100H199.073L175.431 36.7188H193.229L210.763 87.6514L226.627 36.7188H237.438L215.025 100Z" fill="#E57200"/>
</g>
<g filter="url(#filter1_d_507_5)">
<path d="M47.377 53.1396C47.377 54.1826 47.5498 54.9238 47.8955 55.3633C48.2412 55.8027 48.8535 56.0225 49.7324 56.0225C50.3535 56.0225 50.8311 55.9111 51.165 55.6885C51.5049 55.4658 51.7363 55.1289 51.8594 54.6777C51.9883 54.2266 52.0527 53.623 52.0527 52.8672V47.4707L50.6465 46.9258V45.3965L56.1924 45.3086V46.9258L54.8477 47.4707V52.8672C54.8477 54.666 54.4463 56.0078 53.6436 56.8926C52.8467 57.7773 51.5137 58.2197 49.6445 58.2197C47.8574 58.2197 46.5654 57.8125 45.7686 56.998C44.9775 56.1777 44.582 54.8916 44.582 53.1396V47.4707L43.2549 46.9258V45.3965L48.7744 45.3086V46.9258L47.377 47.4707V53.1396ZM56.9131 45.3965L62.4941 45.3086V46.9258L61.167 47.4531L62.8193 52.6211L63.3994 54.8359L63.9707 52.709L65.7549 47.4707L64.3838 46.9258V45.3965L69.7715 45.3086V46.9258L68.4531 47.4707L64.6562 58H61.7734L58.1436 47.4355L56.9131 46.9258V45.3965ZM82.3311 58H76.6006V56.4707L77.9541 55.9873L77.5234 54.6689H73.5244L73.0762 55.9697L74.4824 56.4707V58H69.042V56.4707L70.3604 55.9697L74.3154 45.3613L77.1982 45.3086L81.0654 55.9697L82.3311 56.4707V58ZM75.5811 48.4814L74.1572 52.7441H76.9258L75.5811 48.4814ZM89.8809 55.6094C89.916 55.6328 90.0098 55.6738 90.1621 55.7324C90.3203 55.791 90.5283 55.8496 90.7861 55.9082C91.0439 55.9609 91.3281 55.9873 91.6387 55.9873C92.248 55.9873 92.7637 55.8584 93.1855 55.6006C93.6074 55.3428 93.8184 54.9854 93.8184 54.5283C93.8184 54.2529 93.7246 54.0215 93.5371 53.834C93.3555 53.6465 93.1211 53.4912 92.834 53.3682C92.5527 53.2393 92.1426 53.0781 91.6035 52.8848C90.8125 52.6094 90.1592 52.3369 89.6436 52.0674C89.1279 51.7979 88.6797 51.4082 88.2988 50.8984C87.9238 50.3887 87.7363 49.7266 87.7363 48.9121C87.7363 48.1094 87.9326 47.4209 88.3252 46.8467C88.7236 46.2666 89.2686 45.8301 89.96 45.5371C90.6514 45.2441 91.4336 45.0977 92.3066 45.0977C92.9043 45.0977 93.4961 45.1504 94.082 45.2559C94.6738 45.3613 95.1602 45.4727 95.541 45.5898C95.9277 45.7012 96.1709 45.7773 96.2705 45.8184L96.1738 49.0879H94.5215L94.0732 47.5586C94.0264 47.5469 93.9238 47.5205 93.7656 47.4795C93.6074 47.4385 93.4111 47.3975 93.1768 47.3564C92.9424 47.3096 92.7139 47.2861 92.4912 47.2861C91.8818 47.2861 91.4102 47.4062 91.0762 47.6465C90.7422 47.8867 90.5752 48.1943 90.5752 48.5693C90.5752 48.9561 90.7539 49.2607 91.1113 49.4834C91.4746 49.7002 92.0459 49.9463 92.8252 50.2217C93.6162 50.4971 94.2666 50.7666 94.7764 51.0303C95.292 51.2939 95.7314 51.6719 96.0947 52.1641C96.4639 52.6562 96.6484 53.2861 96.6484 54.0537C96.6484 54.9326 96.4375 55.6885 96.0156 56.3213C95.5938 56.9482 95.0166 57.4258 94.2842 57.7539C93.5518 58.0762 92.7197 58.2373 91.7881 58.2373C91.1904 58.2373 90.5928 58.1846 89.9951 58.0791C89.4033 57.9795 88.9111 57.877 88.5186 57.7715C88.126 57.6602 87.877 57.5869 87.7715 57.5518V54.0977H89.6084L89.8809 55.6094ZM98.2744 56.4707L99.6279 55.9258V47.4707L98.2744 46.9258V45.3965L103.768 45.3086V46.9258L102.414 47.4707V55.9258L103.768 56.4707V58H98.2744V56.4707ZM107.705 55.6094C107.74 55.6328 107.834 55.6738 107.986 55.7324C108.145 55.791 108.353 55.8496 108.61 55.9082C108.868 55.9609 109.152 55.9873 109.463 55.9873C110.072 55.9873 110.588 55.8584 111.01 55.6006C111.432 55.3428 111.643 54.9854 111.643 54.5283C111.643 54.2529 111.549 54.0215 111.361 53.834C111.18 53.6465 110.945 53.4912 110.658 53.3682C110.377 53.2393 109.967 53.0781 109.428 52.8848C108.637 52.6094 107.983 52.3369 107.468 52.0674C106.952 51.7979 106.504 51.4082 106.123 50.8984C105.748 50.3887 105.561 49.7266 105.561 48.9121C105.561 48.1094 105.757 47.4209 106.149 46.8467C106.548 46.2666 107.093 45.8301 107.784 45.5371C108.476 45.2441 109.258 45.0977 110.131 45.0977C110.729 45.0977 111.32 45.1504 111.906 45.2559C112.498 45.3613 112.984 45.4727 113.365 45.5898C113.752 45.7012 113.995 45.7773 114.095 45.8184L113.998 49.0879H112.346L111.897 47.5586C111.851 47.5469 111.748 47.5205 111.59 47.4795C111.432 47.4385 111.235 47.3975 111.001 47.3564C110.767 47.3096 110.538 47.2861 110.315 47.2861C109.706 47.2861 109.234 47.4062 108.9 47.6465C108.566 47.8867 108.399 48.1943 108.399 48.5693C108.399 48.9561 108.578 49.2607 108.936 49.4834C109.299 49.7002 109.87 49.9463 110.649 50.2217C111.44 50.4971 112.091 50.7666 112.601 51.0303C113.116 51.2939 113.556 51.6719 113.919 52.1641C114.288 52.6562 114.473 53.2861 114.473 54.0537C114.473 54.9326 114.262 55.6885 113.84 56.3213C113.418 56.9482 112.841 57.4258 112.108 57.7539C111.376 58.0762 110.544 58.2373 109.612 58.2373C109.015 58.2373 108.417 58.1846 107.819 58.0791C107.228 57.9795 106.735 57.877 106.343 57.7715C105.95 57.6602 105.701 57.5869 105.596 57.5518V54.0977H107.433L107.705 55.6094ZM42.3672 94H36.6367V92.4707L37.9902 91.9873L37.5596 90.6689H33.5605L33.1123 91.9697L34.5186 92.4707V94H29.0781V92.4707L30.3965 91.9697L34.3516 81.3613L37.2344 81.3086L41.1016 91.9697L42.3672 92.4707V94ZM35.6172 84.4814L34.1934 88.7441H36.9619L35.6172 84.4814ZM42.7275 84.3672L46.8672 84.2793V90.4932C46.8672 90.9971 46.9492 91.3633 47.1133 91.5918C47.2832 91.8145 47.5674 91.9258 47.9658 91.9258C48.3115 91.9258 48.6338 91.8555 48.9326 91.7148C49.2314 91.5684 49.4834 91.4131 49.6885 91.249C49.8936 91.0791 49.9961 90.9824 49.9961 90.959V86.2568L48.5547 85.8086V84.3672L52.6943 84.2793V92.1104L54.1357 92.4707V93.877L50.3389 94L50.1631 92.7432C50.1631 92.7666 49.9961 92.9043 49.6621 93.1562C49.334 93.4082 48.9355 93.6426 48.4668 93.8594C47.998 94.0703 47.5117 94.1758 47.0078 94.1758C46.1055 94.1758 45.4053 93.8916 44.9072 93.3232C44.415 92.7549 44.1689 91.9668 44.1689 90.959V86.2568L42.7275 85.8086V84.3672ZM59.1016 94.1758C58.1289 94.1758 57.4404 93.874 57.0361 93.2705C56.6377 92.667 56.4385 91.7998 56.4385 90.6689V86.5293H54.7686V84.7803L56.4385 84.5518V82.0645L59.1367 81.5811V84.5518H61.6592V86.5293H59.1367V90.4932C59.1367 91.0908 59.2012 91.5098 59.3301 91.75C59.4648 91.9902 59.7197 92.1104 60.0947 92.1104C60.3115 92.1104 60.5635 92.0635 60.8506 91.9697C61.1377 91.8701 61.3604 91.7793 61.5186 91.6973L62.1602 93.0684C61.1523 93.8125 60.1328 94.1816 59.1016 94.1758ZM67.8291 84.1035C69.2764 84.1035 70.3926 84.5254 71.1777 85.3691C71.9688 86.2129 72.3643 87.4111 72.3643 88.9639C72.3643 90.0303 72.165 90.9561 71.7666 91.7412C71.374 92.5264 70.8174 93.1299 70.0967 93.5518C69.376 93.9678 68.5293 94.1758 67.5566 94.1758C64.498 94.1758 62.9688 92.5264 62.9688 89.2275C62.9688 88.1611 63.168 87.2441 63.5664 86.4766C63.9707 85.709 64.5391 85.123 65.2715 84.7188C66.0039 84.3086 66.8564 84.1035 67.8291 84.1035ZM67.7324 86.2568C67.0527 86.2568 66.5518 86.4766 66.2295 86.916C65.9131 87.3555 65.7549 88.0967 65.7549 89.1396C65.7549 90.1357 65.9043 90.8652 66.2031 91.3281C66.5078 91.791 66.9883 92.0225 67.6445 92.0225C68.3066 92.0225 68.793 91.791 69.1035 91.3281C69.4141 90.8652 69.5693 90.1064 69.5693 89.0518C69.5693 88.1143 69.4229 87.4141 69.1299 86.9512C68.8369 86.4883 68.3711 86.2568 67.7324 86.2568ZM90.4082 94H85.5303V92.5586L86.4883 92.1104V87.8301C86.4883 87.3262 86.4062 86.9541 86.2422 86.7139C86.084 86.4736 85.8174 86.3535 85.4424 86.3535C85.0967 86.3535 84.7744 86.4238 84.4756 86.5645C84.1826 86.6992 83.9365 86.8486 83.7373 87.0127C83.5439 87.1709 83.4473 87.2617 83.4473 87.2852V92.1104L84.3789 92.5586V94H79.8086V92.5586L80.749 92.1104V87.8301C80.749 87.3145 80.6699 86.9395 80.5117 86.7051C80.3535 86.4707 80.0898 86.3535 79.7207 86.3535C79.375 86.3535 79.0498 86.4238 78.7451 86.5645C78.4463 86.6992 78.1973 86.8516 77.998 87.0215C77.8047 87.1855 77.708 87.2734 77.708 87.2852V92.1104L78.6572 92.5586V94H73.6211V92.5586L75.001 92.1104V86.2568L73.6387 85.8086V84.3672L77.4004 84.2793L77.5234 85.5537C77.5234 85.5303 77.6963 85.3896 78.042 85.1318C78.3936 84.874 78.8037 84.6396 79.2725 84.4287C79.7412 84.2119 80.207 84.1035 80.6699 84.1035C81.8828 84.1035 82.7119 84.6191 83.1572 85.6504C83.4912 85.3164 83.9453 84.9766 84.5195 84.6309C85.0996 84.2793 85.7324 84.1035 86.418 84.1035C87.3438 84.1035 88.0352 84.3848 88.4922 84.9473C88.9551 85.5098 89.1865 86.3066 89.1865 87.3379V92.1104L90.4082 92.5586V94ZM97.3076 92.8311C97.3076 92.8545 97.1523 92.9863 96.8418 93.2266C96.5312 93.4668 96.1592 93.6865 95.7256 93.8857C95.292 94.0791 94.8467 94.1758 94.3896 94.1758C93.5107 94.1758 92.8223 93.9326 92.3242 93.4463C91.832 92.9541 91.5859 92.2568 91.5859 91.3545C91.5859 90.3232 91.9551 89.5703 92.6934 89.0957C93.4316 88.6211 94.5068 88.3838 95.9189 88.3838H97.1846V87.3906C97.1846 86.5117 96.7217 86.0752 95.7959 86.0811C95.5205 86.0811 95.2656 86.1016 95.0312 86.1426C94.7969 86.1836 94.6094 86.2275 94.4688 86.2744C94.334 86.3154 94.249 86.3418 94.2139 86.3535L93.9414 87.4873H92.3242L92.2012 84.8242C92.3066 84.7891 92.5645 84.7129 92.9746 84.5957C93.3906 84.4785 93.8857 84.3672 94.46 84.2617C95.04 84.1562 95.5879 84.1035 96.1035 84.1035C97.0293 84.1035 97.7646 84.2207 98.3096 84.4551C98.8545 84.6836 99.2529 85.0586 99.5049 85.5801C99.7568 86.0957 99.8828 86.79 99.8828 87.6631V92.1104L101.236 92.4355V93.877L97.6328 94L97.3076 92.8311ZM94.1963 91.082C94.1963 91.4336 94.2871 91.7031 94.4688 91.8906C94.6562 92.0723 94.9199 92.1631 95.2598 92.1631C95.5469 92.1631 95.8311 92.0869 96.1123 91.9346C96.3936 91.7764 96.6309 91.6152 96.8242 91.4512C97.0176 91.2812 97.1377 91.1699 97.1846 91.1172V89.9131H96.1562C95.459 89.9131 94.958 90.0068 94.6533 90.1943C94.3486 90.3818 94.1963 90.6777 94.1963 91.082ZM106.281 94.1758C105.309 94.1758 104.62 93.874 104.216 93.2705C103.817 92.667 103.618 91.7998 103.618 90.6689V86.5293H101.948V84.7803L103.618 84.5518V82.0645L106.316 81.5811V84.5518H108.839V86.5293H106.316V90.4932C106.316 91.0908 106.381 91.5098 106.51 91.75C106.645 91.9902 106.899 92.1104 107.274 92.1104C107.491 92.1104 107.743 92.0635 108.03 91.9697C108.317 91.8701 108.54 91.7793 108.698 91.6973L109.34 93.0684C108.332 93.8125 107.312 94.1816 106.281 94.1758ZM115.009 84.1035C116.456 84.1035 117.572 84.5254 118.357 85.3691C119.148 86.2129 119.544 87.4111 119.544 88.9639C119.544 90.0303 119.345 90.9561 118.946 91.7412C118.554 92.5264 117.997 93.1299 117.276 93.5518C116.556 93.9678 115.709 94.1758 114.736 94.1758C111.678 94.1758 110.148 92.5264 110.148 89.2275C110.148 88.1611 110.348 87.2441 110.746 86.4766C111.15 85.709 111.719 85.123 112.451 84.7188C113.184 84.3086 114.036 84.1035 115.009 84.1035ZM114.912 86.2568C114.232 86.2568 113.731 86.4766 113.409 86.916C113.093 87.3555 112.935 88.0967 112.935 89.1396C112.935 90.1357 113.084 90.8652 113.383 91.3281C113.688 91.791 114.168 92.0225 114.824 92.0225C115.486 92.0225 115.973 91.791 116.283 91.3281C116.594 90.8652 116.749 90.1064 116.749 89.0518C116.749 88.1143 116.603 87.4141 116.31 86.9512C116.017 86.4883 115.551 86.2568 114.912 86.2568ZM124.738 85.5186C124.738 85.4951 124.879 85.3574 125.16 85.1055C125.441 84.8535 125.767 84.625 126.136 84.4199C126.511 84.209 126.88 84.1035 127.243 84.1035C127.53 84.1035 127.8 84.127 128.052 84.1738C128.304 84.2207 128.5 84.2705 128.641 84.3232C128.787 84.376 128.878 84.4082 128.913 84.4199L128.772 87.8828H127.155L126.883 86.3535C126.572 86.3535 126.271 86.4297 125.978 86.582C125.69 86.7285 125.444 86.8926 125.239 87.0742C125.04 87.25 124.94 87.3438 124.94 87.3555V92.1104L126.742 92.5586V94H120.801V92.5586L122.242 92.1104V86.2568L120.801 85.8086V84.3672L124.58 84.2793L124.738 85.5186Z" fill="white"/>
</g>
<defs>
<filter id="filter0_d_507_5" x="171.431" y="36.7188" width="70.0068" height="71.2812" filterUnits="userSpaceOnUse" color-interpolation-filters="sRGB">
<feFlood flood-opacity="0" result="BackgroundImageFix"/>
<feColorMatrix in="SourceAlpha" type="matrix" values="0 0 0 0 0 0 0 0 0 0 0 0 0 0 0 0 0 0 127 0" result="hardAlpha"/>
<feOffset dy="4"/>
<feGaussianBlur stdDeviation="2"/>
<feComposite in2="hardAlpha" operator="out"/>
<feColorMatrix type="matrix" values="0 0 0 0 0 0 0 0 0 0 0 0 0 0 0 0 0 0 0.25 0"/>
<feBlend mode="normal" in2="BackgroundImageFix" result="effect1_dropShadow_507_5"/>
<feBlend mode="normal" in="SourceGraphic" in2="effect1_dropShadow_507_5" result="shape"/>
</filter>
<filter id="filter1_d_507_5" x="25.0781" y="45.0977" width="107.835" height="57.0869" filterUnits="userSpaceOnUse" color-interpolation-filters="sRGB">
<feFlood flood-opacity="0" result="BackgroundImageFix"/>
<feColorMatrix in="SourceAlpha" type="matrix" values="0 0 0 0 0 0 0 0 0 0 0 0 0 0 0 0 0 0 127 0" result="hardAlpha"/>
<feOffset dy="4"/>
<feGaussianBlur stdDeviation="2"/>
<feComposite in2="hardAlpha" operator="out"/>
<feColorMatrix type="matrix" values="0 0 0 0 0 0 0 0 0 0 0 0 0 0 0 0 0 0 0.25 0"/>
<feBlend mode="normal" in2="BackgroundImageFix" result="effect1_dropShadow_507_5"/>
<feBlend mode="normal" in="SourceGraphic" in2="effect1_dropShadow_507_5" result="shape"/>
</filter>
</defs>
</svg>
